<svg id="Layer_1" data-name="Layer 1" xmlns="http://www.w3.org/2000/svg" viewBox="0 0 507.8 258.1"><defs><style>.cls-1{fill:#1d1d1b;}</style></defs><title>testelogo1</title><path class="cls-1" d="M534.53,514.11l-11.06-18.45-107-178.36L406.08,300c-2.66-4.43-9.19-8.06-14.52-8.06H359.3c-5.32,0-12.17,4.15-15.21,9.22l-40.56,67.59L292.47,387.2l-14.75,24.58-11.06,18.44-39.27,65.44c-3,5.07-9.89,9.22-15.21,9.22H129.37c-5.91,0-8.26-4.15-5.22-9.22L215,344.19c3-5.07,8-5.07,11.06,0L257,395.65c3,5.07,8,5.07,11.06,0l14.75-24.58c3-5.07,3-13.37,0-18.44l-30.88-51.46c-3-5.07-10.37-9.22-16.28-9.22H205.51c-5.91,0-13.24,4.15-16.28,9.22L72.53,495.66,61.47,514.11l-16,26.72c-3,5.07-.69,9.22,5.22,9.22h186c5.32,0,12.17-4.15,15.21-9.22l16-26.72L279,495.66l13.46-22.42,11.06-18.44,14.75-24.58,11.06-18.44,40.56-67.59c3-5.07,7.71-5.59,10.37-1.16l10.37,17.29,81.21,135.34c3,5.07.69,9.22-5.22,9.22H384.89c-5.91,0-13.24-4.15-16.28-9.22L339,446.35c-3-5.07-8-5.07-11.06,0l-14.75,24.58c-3,5.07-3,13.37,0,18.44l3.78,6.29,11.06,18.45,16,26.72c3,5.07,10.37,9.22,16.28,9.22h185c5.91,0,8.26-4.15,5.22-9.22Z" transform="translate(-44.1 -291.95)"/></svg>